<svg xmlns="http://www.w3.org/2000/svg" xmlns:xlink="http://www.w3.org/1999/xlink" width="2816" zoomAndPan="magnify" viewBox="0 0 2112 1151.999944" height="1536" preserveAspectRatio="xMidYMid meet" version="1.0"><path fill="#153653" d="M 480.929688 239.683594 C 485.496094 240.644531 488.324219 242.03125 492.246094 244.53125 L 494.195312 245.773438 C 501.632812 250.582031 508.703125 255.90625 515.796875 261.199219 C 519.109375 263.652344 522.472656 266.035156 525.835938 268.417969 C 532.511719 273.160156 539.109375 278.007812 545.695312 282.878906 C 560.976562 295.746094 560.976562 295.746094 578.878906 302.96875 L 582.886719 302.976562 L 587.519531 303.011719 L 592.558594 302.996094 C 594.335938 303 596.117188 303.007812 597.898438 303.019531 C 601.722656 303.035156 605.546875 303.042969 609.371094 303.042969 C 615.425781 303.039062 621.480469 303.0625 627.535156 303.085938 C 639.300781 303.136719 651.066406 303.15625 662.832031 303.179688 C 677.792969 303.203125 692.757812 303.246094 707.71875 303.304688 C 713.730469 303.328125 719.742188 303.335938 725.753906 303.335938 C 729.503906 303.34375 733.253906 303.355469 737.003906 303.371094 C 738.734375 303.375 740.464844 303.375 742.195312 303.371094 C 762.691406 303.335938 762.691406 303.335938 771.605469 307.882812 L 774.691406 309.976562 L 777.8125 312.046875 C 780.863281 314.238281 783.835938 316.414062 786.664062 318.886719 L 786.664062 321.222656 L 788.5625 322.027344 C 792.304688 324.09375 795.183594 326.527344 798.347656 329.402344 L 798.347656 331.742188 L 800.238281 332.503906 C 804.046875 334.65625 807.027344 337.585938 810.179688 340.578125 C 814.429688 344.8125 814.429688 344.8125 819.378906 348.101562 L 819.378906 350.4375 L 821.347656 351.273438 C 824.710938 353.140625 827.164062 355.46875 829.96875 358.109375 C 834.390625 362.203125 838.863281 366.140625 843.550781 369.941406 C 860.394531 383.609375 860.394531 383.609375 862.605469 389.003906 C 863.117188 392.65625 863.117188 392.65625 862.605469 396.015625 C 860.597656 397.960938 860.597656 397.960938 857.933594 399.519531 C 848.90625 400.785156 838.734375 399.03125 829.894531 398.351562 L 829.894531 815.550781 L 847.417969 815.550781 C 857.347656 816.859375 857.347656 816.859375 862.097656 819.640625 C 864.292969 823.464844 864.71875 826.746094 864.988281 831.121094 C 864.921875 835.804688 864.441406 840.425781 862.605469 844.765625 C 859.101562 847.105469 859.101562 847.105469 856.199219 847.472656 L 852.710938 847.582031 L 848.765625 847.714844 L 844.492188 847.824219 L 840.042969 847.957031 C 825.011719 848.375 809.984375 848.441406 794.949219 848.4375 L 785.902344 848.449219 C 778.566406 848.457031 771.230469 848.460938 763.894531 848.460938 C 755.089844 848.460938 746.28125 848.464844 737.476562 848.476562 C 716.234375 848.496094 694.988281 848.5 673.746094 848.507812 C 663.691406 848.507812 653.632812 848.511719 643.578125 848.519531 C 599.390625 848.535156 555.199219 848.546875 511.003906 848.554688 C 476.074219 848.558594 441.144531 848.578125 406.214844 848.601562 C 364.167969 848.632812 322.125 848.648438 280.078125 848.648438 C 264 848.652344 247.925781 848.664062 231.851562 848.679688 C 215.722656 848.699219 199.59375 848.703125 183.46875 848.691406 C 173.882812 848.6875 164.296875 848.691406 154.710938 848.710938 C 147.566406 848.722656 140.421875 848.71875 133.277344 848.703125 C 130.378906 848.703125 127.480469 848.707031 124.582031 848.714844 C 120.660156 848.730469 116.738281 848.722656 112.8125 848.707031 L 109.359375 848.734375 C 104.671875 848.699219 101.542969 848.597656 97.257812 846.566406 C 95.011719 844.765625 95.011719 844.765625 93.84375 843.597656 C 93.519531 839.761719 93.574219 835.90625 93.550781 832.058594 L 93.480469 828.785156 L 93.460938 825.640625 L 93.429688 822.75 C 93.84375 820.226562 93.84375 820.226562 95.402344 818.207031 C 97.347656 816.71875 97.347656 816.71875 100.855469 815.550781 C 103.011719 815.453125 105.171875 815.425781 107.328125 815.4375 L 111.128906 815.449219 L 115.09375 815.476562 L 119.097656 815.492188 C 122.363281 815.507812 125.628906 815.527344 128.894531 815.550781 L 128.871094 810.945312 C 128.6875 769.765625 128.507812 728.578125 128.332031 687.390625 L 128.320312 684.632812 C 128.265625 671.953125 128.207031 659.273438 128.148438 646.589844 C 128.042969 624.699219 127.949219 602.804688 127.867188 580.914062 L 127.859375 578.324219 C 127.632812 518.714844 127.878906 459.125 128.894531 399.519531 L 124.621094 399.601562 C 122.734375 399.625 120.847656 399.648438 118.964844 399.667969 L 116.160156 399.726562 C 109.871094 399.777344 104.539062 399.050781 98.515625 397.183594 C 96.179688 395.285156 96.179688 395.285156 95.011719 393.679688 C 96.0625 389.324219 97.414062 386.269531 100.449219 383.027344 C 101.714844 381.769531 102.992188 380.523438 104.285156 379.289062 L 106.351562 377.273438 C 111.363281 372.445312 116.597656 367.96875 122.042969 363.632812 C 132.78125 355.042969 142.964844 345.875 152.949219 336.433594 C 158.210938 331.484375 163.644531 326.910156 169.300781 322.421875 C 172.039062 320.121094 174.433594 317.699219 176.867188 315.089844 C 182.425781 309.335938 189.140625 306.199219 196.65625 303.695312 C 199.132812 303.601562 201.613281 303.578125 204.09375 303.597656 L 206.390625 303.605469 C 208.933594 303.617188 211.480469 303.636719 214.027344 303.65625 C 215.847656 303.667969 217.671875 303.675781 219.496094 303.6875 C 222.410156 303.699219 225.328125 303.714844 228.246094 303.730469 C 235.496094 303.769531 242.742188 303.789062 249.992188 303.792969 L 253.183594 303.796875 L 266.222656 303.804688 C 278.542969 303.8125 290.859375 303.839844 303.175781 303.929688 C 312.960938 304.003906 322.75 304.027344 332.535156 304 C 337.710938 303.988281 342.882812 304 348.054688 304.066406 C 370.296875 305.195312 370.296875 305.195312 391.359375 299.710938 C 395.949219 296.847656 399.644531 293.5 403.453125 289.671875 C 405.34375 288.253906 407.269531 286.878906 409.222656 285.542969 C 410.804688 284.390625 412.386719 283.234375 413.96875 282.074219 C 421.261719 276.769531 428.640625 271.578125 436.097656 266.503906 C 443.121094 261.707031 450.003906 256.726562 456.859375 251.691406 C 473.960938 239.207031 473.960938 239.207031 480.925781 239.683594 M 476.726562 296.152344 C 464.039062 303.035156 452.71875 311.980469 441.226562 320.65625 C 433.785156 326.238281 426.203125 331.621094 418.65625 337.054688 C 415.726562 339.171875 412.796875 341.296875 409.878906 343.425781 C 402.601562 348.726562 395.300781 353.992188 388.003906 359.261719 C 384.265625 361.960938 380.53125 364.660156 376.800781 367.359375 C 368.710938 373.21875 360.621094 379.074219 352.410156 384.761719 C 348.082031 387.8125 343.84375 390.980469 339.597656 394.144531 C 336.855469 396.015625 336.855469 396.015625 333.351562 397.183594 L 158.101562 398.351562 L 159.269531 815.550781 L 799.515625 815.550781 C 800.488281 708.921875 800.488281 708.921875 800.84375 602.292969 C 800.839844 595.046875 800.839844 587.804688 800.84375 580.5625 C 800.847656 568.605469 800.84375 556.652344 800.835938 544.695312 C 800.832031 532.480469 800.832031 520.265625 800.835938 508.050781 C 800.84375 494.378906 800.847656 480.707031 800.84375 467.039062 C 800.839844 459.917969 800.839844 452.796875 800.84375 445.675781 C 800.847656 439.117188 800.847656 432.558594 800.839844 425.996094 C 800.839844 423.59375 800.839844 421.195312 800.839844 418.792969 C 800.84375 415.539062 800.839844 412.285156 800.835938 409.03125 L 800.84375 406.128906 C 800.835938 403.925781 800.765625 401.722656 800.6875 399.519531 L 799.515625 398.351562 C 797.335938 398.242188 795.15625 398.1875 792.972656 398.191406 C 791.550781 398.1875 790.128906 398.179688 788.664062 398.171875 L 783.894531 398.167969 L 778.902344 398.152344 C 775.308594 398.136719 771.71875 398.128906 768.125 398.121094 C 762.4375 398.109375 756.753906 398.082031 751.066406 398.058594 C 734.894531 397.984375 718.722656 397.921875 702.546875 397.882812 C 693.621094 397.863281 684.695312 397.828125 675.773438 397.78125 C 671.050781 397.753906 666.328125 397.738281 661.609375 397.734375 C 657.15625 397.730469 652.707031 397.714844 648.257812 397.683594 C 646.632812 397.675781 645.003906 397.671875 643.375 397.675781 C 632.957031 397.699219 624.546875 396.832031 615.246094 392.039062 C 604.132812 384.746094 593.542969 376.710938 583.089844 368.507812 C 575.003906 362.179688 566.695312 356.320312 558.195312 350.5625 C 547.675781 343.417969 537.476562 335.851562 527.296875 328.234375 L 525.191406 326.664062 C 521.214844 323.691406 517.242188 320.707031 513.277344 317.71875 C 509.761719 315.066406 506.238281 312.421875 502.710938 309.78125 C 500.386719 308.046875 498.074219 306.300781 495.765625 304.542969 L 492.390625 302.015625 L 489.40625 299.753906 C 485.304688 297.15625 481.636719 294.976562 476.730469 296.152344 " fill-opacity="1" fill-rule="nonzero"/><path fill="#52b358" d="M 647.035156 496.46875 C 662.425781 496.332031 677.808594 496.402344 693.199219 496.515625 L 697.597656 496.546875 C 707.03125 496.613281 716.464844 496.707031 725.898438 496.824219 C 729.015625 496.863281 732.132812 496.894531 735.253906 496.921875 C 739.636719 496.960938 744.019531 497.019531 748.402344 497.085938 L 752.40625 497.109375 L 756.089844 497.179688 L 759.296875 497.21875 C 762.128906 497.6875 762.128906 497.6875 764.804688 499.230469 L 766.804688 501.191406 C 767.316406 504.265625 767.511719 506.871094 767.515625 509.957031 L 767.574219 512.757812 C 767.632812 515.914062 767.65625 519.070312 767.679688 522.226562 C 767.710938 524.484375 767.746094 526.742188 767.78125 529 C 767.878906 536.445312 767.925781 543.886719 767.960938 551.335938 L 768 559.085938 C 768.058594 571.832031 768.097656 584.578125 768.113281 597.324219 L 768.125 603.289062 C 768.132812 609.027344 768.136719 614.765625 768.128906 620.503906 C 768.128906 622.273438 768.128906 624.039062 768.132812 625.808594 C 768.152344 643.425781 768.152344 643.425781 766.804688 650.773438 C 765.199219 653.039062 765.199219 653.039062 763.300781 654.28125 C 759.808594 655.445312 757.5 655.601562 753.851562 655.613281 L 750.128906 655.632812 L 746.046875 655.636719 L 741.746094 655.65625 C 737.851562 655.667969 733.957031 655.679688 730.0625 655.683594 L 722.769531 655.699219 C 715.164062 655.714844 707.558594 655.722656 699.949219 655.730469 C 691.164062 655.734375 682.378906 655.753906 673.59375 655.789062 C 666.808594 655.8125 660.019531 655.828125 653.230469 655.828125 C 649.171875 655.828125 645.117188 655.835938 641.0625 655.855469 C 636.539062 655.878906 632.023438 655.875 627.5 655.867188 L 623.417969 655.898438 L 619.695312 655.878906 L 616.453125 655.882812 C 613.753906 655.449219 613.753906 655.449219 611.703125 653.960938 C 610.03125 651.640625 609.503906 650.09375 609.078125 647.269531 C 608.96875 645.277344 608.917969 643.285156 608.90625 641.289062 L 608.882812 637.632812 L 608.871094 633.636719 L 608.847656 629.414062 C 608.824219 624.800781 608.8125 620.1875 608.800781 615.574219 L 608.785156 610.804688 C 608.761719 603.335938 608.746094 595.867188 608.738281 588.398438 C 608.726562 579.785156 608.695312 571.167969 608.648438 562.550781 C 608.613281 555.890625 608.59375 549.226562 608.59375 542.558594 C 608.589844 538.582031 608.578125 534.601562 608.550781 530.625 C 608.523438 526.1875 608.519531 521.75 608.53125 517.3125 L 608.484375 513.324219 C 608.507812 509.992188 608.582031 506.824219 609.078125 503.527344 C 611.308594 499.792969 611.308594 499.792969 613.753906 497.6875 C 616.042969 496.914062 616.042969 496.914062 618.535156 496.859375 L 621.511719 496.757812 L 624.851562 496.738281 L 628.527344 496.652344 C 632.132812 496.585938 635.734375 496.546875 639.335938 496.53125 C 641.902344 496.515625 644.46875 496.496094 647.035156 496.46875 M 658.777344 549.976562 C 655.4375 551.628906 652.039062 553.035156 648.582031 554.4375 C 643.300781 556.589844 638.46875 558.980469 633.613281 561.960938 C 633.859375 564.238281 633.859375 564.238281 634.78125 566.632812 C 636.71875 568.058594 636.71875 568.058594 639.234375 568.972656 L 642.089844 570.144531 C 645.5625 571.40625 649.070312 572.484375 652.597656 573.574219 C 656.789062 574.910156 659.871094 575.953125 662.894531 579.195312 L 665.160156 581.828125 L 668.664062 581.828125 L 668.664062 584.164062 L 666.78125 583.398438 L 664.28125 582.410156 L 661.816406 581.425781 C 659.007812 580.429688 659.007812 580.429688 654.644531 580.65625 C 654.359375 588.941406 654.175781 597.289062 656.980469 605.199219 C 660.113281 608.898438 663.476562 610.234375 667.933594 611.847656 C 680.417969 615.617188 693.472656 615.441406 706.238281 613.109375 C 712.394531 611.441406 717.890625 608.546875 722.40625 604.03125 C 722.730469 601.539062 722.730469 601.539062 722.636719 598.691406 L 722.613281 595.515625 L 722.554688 592.199219 L 722.523438 588.851562 C 722.492188 586.121094 722.457031 583.390625 722.40625 580.65625 L 717.878906 581.242188 C 715.460938 581.554688 713.164062 581.828125 710.722656 581.828125 C 718.011719 577.6875 725.40625 573.847656 732.921875 570.140625 L 734.089844 595.851562 L 738.765625 595.851562 C 739.925781 592.363281 740.160156 589.773438 740.300781 586.121094 L 740.449219 582.480469 L 740.589844 578.6875 L 740.742188 574.847656 C 740.867188 571.722656 740.984375 568.59375 741.101562 565.464844 L 743.4375 565.464844 L 743.4375 561.960938 C 739.957031 560.300781 736.476562 558.648438 732.996094 556.992188 L 730.054688 555.589844 C 721.214844 551.394531 712.3125 547.386719 703.277344 543.628906 L 699.742188 542.152344 C 684.792969 536.109375 672.175781 543.015625 658.777344 549.976562 " fill-opacity="1" fill-rule="nonzero"/><path fill="#25b4b9" d="M 369.570312 424.0625 C 371.90625 424.136719 371.90625 424.136719 374.242188 425.230469 C 376.710938 429.976562 377.066406 434.660156 377.3125 439.914062 L 377.574219 444.515625 C 377.789062 450.941406 377.75 457.371094 377.75 463.796875 L 577.535156 463.796875 L 577.535156 425.230469 L 583.375 424.0625 C 587.839844 429.105469 587.839844 429.105469 588.761719 432.628906 C 589.230469 435.835938 589.460938 438.960938 589.585938 442.199219 L 589.734375 445.816406 L 589.875 449.550781 L 590.027344 453.355469 C 590.152344 456.449219 590.269531 459.535156 590.386719 462.625 L 593.292969 462.640625 C 616.636719 462.761719 639.980469 462.890625 663.324219 463.023438 C 674.613281 463.089844 685.898438 463.152344 697.1875 463.207031 C 707.023438 463.257812 716.863281 463.3125 726.699219 463.371094 C 731.910156 463.402344 737.117188 463.429688 742.328125 463.457031 C 747.230469 463.480469 752.132812 463.507812 757.03125 463.539062 C 758.832031 463.550781 760.636719 463.558594 762.4375 463.566406 C 764.890625 463.578125 767.34375 463.589844 769.800781 463.609375 L 773.96875 463.632812 C 777.320312 463.796875 777.320312 463.796875 780.824219 464.964844 L 780.824219 476.652344 L 590.386719 476.652344 L 590.425781 545.039062 C 590.4375 566.78125 590.445312 588.523438 590.449219 610.265625 L 590.449219 613.109375 C 590.457031 628.273438 590.464844 643.433594 590.476562 658.59375 C 590.488281 674.148438 590.492188 689.699219 590.496094 705.253906 C 590.496094 714.855469 590.503906 724.457031 590.511719 734.058594 C 590.515625 740.636719 590.519531 747.214844 590.519531 753.792969 C 590.515625 757.589844 590.519531 761.390625 590.523438 765.191406 C 590.53125 769.304688 590.53125 773.417969 590.527344 777.53125 L 590.539062 781.191406 L 590.53125 784.519531 L 590.53125 787.398438 C 590.386719 789.839844 590.386719 789.839844 589.21875 793.347656 C 585.761719 795.074219 582.507812 794.585938 578.703125 794.515625 C 576.195312 789.496094 577.050781 782.875 576.882812 777.363281 L 576.808594 774.9375 C 576.019531 748.242188 576.21875 721.527344 576.246094 694.828125 C 576.253906 687.917969 576.253906 681.003906 576.257812 674.09375 C 576.257812 660.441406 576.265625 646.785156 576.277344 633.128906 C 576.289062 619.894531 576.296875 606.660156 576.300781 593.425781 L 576.300781 590.914062 L 576.308594 569.261719 C 576.320312 538.390625 576.34375 507.519531 576.367188 476.652344 L 378.917969 477.820312 C 378.707031 517.183594 378.707031 517.183594 378.503906 556.550781 C 378.417969 572.675781 378.335938 588.804688 378.246094 604.933594 C 378.179688 617.933594 378.109375 630.933594 378.042969 643.933594 L 377.960938 659.3125 C 377.832031 683.824219 377.714844 708.339844 377.785156 732.855469 L 377.808594 741.730469 C 377.828125 749.769531 377.855469 757.808594 377.910156 765.847656 C 377.921875 768.230469 377.933594 770.617188 377.941406 773.003906 C 377.949219 775.851562 377.96875 778.699219 378 781.546875 L 378.003906 785.265625 L 378.027344 788.484375 L 377.75 791.007812 L 375.414062 793.347656 C 372.242188 793.730469 369.277344 793.5 366.066406 793.347656 L 364.898438 792.179688 C 364.785156 790.488281 364.734375 788.800781 364.734375 787.105469 L 364.714844 783.769531 L 364.710938 780.058594 L 364.695312 776.152344 C 364.675781 771.796875 364.667969 767.4375 364.65625 763.082031 L 364.621094 753.753906 C 364.597656 747.042969 364.574219 740.332031 364.558594 733.621094 C 364.53125 723.917969 364.5 714.214844 364.464844 704.507812 C 364.410156 688.765625 364.355469 673.023438 364.308594 657.28125 C 364.265625 641.984375 364.214844 626.691406 364.164062 611.394531 L 364.152344 608.539062 L 364.105469 594.359375 C 363.972656 555.125 363.847656 515.886719 363.730469 476.652344 L 360.792969 476.652344 C 337.269531 476.679688 313.742188 476.699219 290.210938 476.710938 C 278.835938 476.714844 267.457031 476.726562 256.082031 476.738281 C 246.167969 476.75 236.257812 476.757812 226.34375 476.761719 C 221.089844 476.761719 215.839844 476.765625 210.585938 476.773438 C 205.648438 476.78125 200.710938 476.785156 195.773438 476.78125 C 193.957031 476.78125 192.136719 476.785156 190.320312 476.789062 C 187.851562 476.796875 185.378906 476.796875 182.910156 476.789062 L 178.707031 476.792969 L 175.628906 476.652344 L 174.460938 475.480469 C 174.027344 468.65625 174.027344 468.65625 174.460938 466.132812 C 177.964844 463.796875 177.964844 463.796875 181.316406 463.507812 L 185.480469 463.515625 L 187.804688 463.507812 C 190.378906 463.503906 192.949219 463.515625 195.523438 463.53125 L 201.046875 463.53125 C 206.054688 463.527344 211.058594 463.542969 216.066406 463.558594 C 221.296875 463.574219 226.527344 463.574219 231.757812 463.578125 C 241.660156 463.585938 251.566406 463.605469 261.472656 463.628906 C 272.75 463.652344 284.027344 463.664062 295.300781 463.675781 C 318.5 463.703125 341.699219 463.742188 364.898438 463.796875 C 364.886719 462.953125 364.875 462.113281 364.859375 461.242188 C 364.8125 457.394531 364.777344 453.546875 364.75 449.699219 L 364.691406 445.683594 C 364.652344 438.820312 364.6875 432.824219 367.234375 426.398438 Z M 369.570312 424.0625 " fill-opacity="1" fill-rule="nonzero"/><path fill="#25b4b9" d="M 194.820312 693.492188 C 198.511719 693.265625 202.15625 693.253906 205.851562 693.296875 L 210.109375 693.277344 C 213.953125 693.265625 217.792969 693.277344 221.636719 693.304688 C 225.664062 693.328125 229.691406 693.320312 233.71875 693.320312 C 240.476562 693.320312 247.238281 693.339844 254 693.378906 C 261.8125 693.425781 269.621094 693.433594 277.433594 693.425781 C 284.953125 693.417969 292.476562 693.429688 299.996094 693.453125 C 303.191406 693.464844 306.390625 693.464844 309.589844 693.464844 C 314.054688 693.46875 318.519531 693.492188 322.988281 693.523438 L 327 693.511719 L 330.691406 693.554688 L 333.890625 693.566406 C 337.511719 694.113281 339.738281 695.402344 342.699219 697.519531 C 346.109375 704.472656 345.375 713.574219 345.347656 721.128906 L 345.351562 724.816406 C 345.355469 727.371094 345.351562 729.921875 345.339844 732.476562 C 345.328125 736.382812 345.339844 740.285156 345.355469 744.191406 C 345.355469 746.679688 345.351562 749.167969 345.347656 751.660156 L 345.359375 755.1875 C 345.292969 765.273438 345.292969 765.273438 342.699219 769.972656 L 341.53125 771.144531 C 327.324219 773.246094 312.578125 772.503906 298.261719 772.507812 L 290.097656 772.519531 C 284.417969 772.527344 278.734375 772.53125 273.054688 772.527344 C 265.804688 772.527344 258.554688 772.542969 251.304688 772.5625 C 245.691406 772.574219 240.082031 772.582031 234.46875 772.578125 C 231.796875 772.578125 229.125 772.585938 226.453125 772.59375 C 195.039062 772.691406 195.039062 772.691406 188.480469 769.972656 C 186.996094 767.949219 186.996094 767.949219 186.140625 765.300781 C 185.820312 762.292969 185.820312 762.292969 185.785156 758.855469 L 185.726562 754.941406 L 185.707031 750.734375 C 185.695312 749.300781 185.6875 747.871094 185.675781 746.394531 C 185.660156 743.363281 185.648438 740.335938 185.644531 737.308594 C 185.632812 732.671875 185.574219 728.039062 185.515625 723.40625 C 185.503906 720.464844 185.496094 717.519531 185.488281 714.578125 L 185.421875 710.378906 L 185.441406 706.453125 L 185.421875 703.011719 C 186.140625 699.855469 186.140625 699.855469 188.238281 696.570312 C 191.984375 694.015625 191.984375 694.015625 194.820312 693.492188 M 200.351562 595.546875 L 204.042969 595.519531 L 208.074219 595.527344 L 212.335938 595.511719 C 216.191406 595.496094 220.042969 595.492188 223.894531 595.496094 C 227.113281 595.496094 230.328125 595.492188 233.546875 595.488281 C 241.132812 595.476562 248.722656 595.472656 256.3125 595.480469 C 264.140625 595.488281 271.96875 595.472656 279.796875 595.449219 C 286.523438 595.429688 293.246094 595.421875 299.96875 595.425781 C 303.984375 595.425781 308 595.425781 312.011719 595.40625 C 316.488281 595.390625 320.964844 595.402344 325.4375 595.414062 L 329.46875 595.386719 L 333.164062 595.410156 L 336.367188 595.410156 C 339.195312 595.851562 339.195312 595.851562 341.851562 597.492188 C 343.867188 599.355469 343.867188 599.355469 344.730469 601.535156 C 345.078125 604.394531 345.203125 607.167969 345.222656 610.046875 L 345.257812 613.675781 L 345.273438 617.574219 L 345.292969 621.597656 C 345.304688 624.410156 345.3125 627.21875 345.316406 630.023438 C 345.328125 634.320312 345.363281 638.617188 345.402344 642.910156 L 345.417969 651.097656 L 345.464844 654.992188 L 345.453125 658.628906 L 345.464844 661.820312 C 344.929688 665.523438 343.773438 667.660156 341.53125 670.640625 C 338.949219 672.273438 337.082031 672.957031 334.035156 673.28125 L 330.835938 673.300781 L 327.148438 673.335938 L 323.121094 673.335938 L 318.863281 673.367188 C 315.015625 673.390625 311.167969 673.402344 307.320312 673.40625 C 304.917969 673.414062 302.511719 673.417969 300.105469 673.425781 C 291.714844 673.457031 283.320312 673.472656 274.929688 673.476562 C 267.109375 673.480469 259.289062 673.515625 251.472656 673.5625 C 244.753906 673.605469 238.035156 673.625 231.316406 673.621094 C 227.308594 673.625 223.296875 673.632812 219.289062 673.667969 C 214.816406 673.703125 210.34375 673.695312 205.871094 673.679688 L 201.851562 673.730469 C 198.464844 673.699219 195.316406 673.589844 191.984375 672.980469 C 188.242188 670.410156 188.242188 670.410156 186.140625 667.136719 C 185.417969 664.078125 185.417969 664.078125 185.421875 660.773438 L 185.390625 657.003906 L 185.449219 652.964844 L 185.449219 648.789062 C 185.453125 645.878906 185.476562 642.964844 185.507812 640.054688 C 185.558594 635.597656 185.558594 631.144531 185.546875 626.691406 C 185.5625 623.859375 185.578125 621.03125 185.59375 618.199219 L 185.59375 614.164062 L 185.652344 610.394531 L 185.683594 607.089844 C 186.242188 603.355469 187.378906 601.195312 189.648438 598.1875 C 193.277344 595.898438 196.101562 595.554688 200.351562 595.546875 M 401.117188 497.6875 C 403.886719 497.097656 403.886719 497.097656 407.226562 497.09375 L 411.0625 497.050781 L 415.273438 497.082031 L 419.707031 497.058594 C 423.722656 497.039062 427.734375 497.042969 431.75 497.058594 C 435.949219 497.070312 440.152344 497.058594 444.351562 497.050781 C 451.40625 497.042969 458.460938 497.050781 465.515625 497.078125 C 473.671875 497.101562 481.828125 497.09375 489.984375 497.066406 C 496.984375 497.046875 503.984375 497.042969 510.984375 497.054688 C 515.167969 497.0625 519.351562 497.0625 523.53125 497.046875 C 528.195312 497.03125 532.855469 497.054688 537.519531 497.082031 L 541.722656 497.050781 L 545.570312 497.09375 L 548.914062 497.097656 C 551.832031 497.6875 551.832031 497.6875 554.523438 499.875 C 556.503906 502.359375 556.503906 502.359375 557.089844 505.324219 L 557.089844 508.699219 L 557.125 512.539062 L 557.082031 516.671875 L 557.089844 520.933594 C 557.085938 523.90625 557.070312 526.878906 557.046875 529.851562 C 557.011719 534.402344 557.023438 538.949219 557.039062 543.503906 C 557.03125 546.390625 557.023438 549.277344 557.011719 552.167969 L 557.019531 556.292969 L 556.976562 560.144531 L 556.957031 563.523438 C 556.417969 567.210938 555.105469 569.4375 552.996094 572.476562 L 551.828125 573.644531 C 549.902344 573.761719 547.972656 573.824219 546.042969 573.824219 L 542.246094 573.855469 L 538.042969 573.871094 L 533.644531 573.902344 C 528.820312 573.929688 523.992188 573.949219 519.167969 573.964844 L 514.1875 573.984375 C 507.285156 574.011719 500.382812 574.03125 493.480469 574.042969 C 483.578125 574.0625 473.675781 574.105469 463.777344 574.167969 C 456.820312 574.214844 449.863281 574.238281 442.90625 574.242188 C 438.75 574.246094 434.59375 574.261719 430.4375 574.300781 C 425.796875 574.339844 421.160156 574.335938 416.523438 574.328125 L 412.34375 574.386719 C 408.890625 574.359375 405.675781 574.269531 402.28125 573.644531 C 399.09375 571.09375 399.09375 571.09375 397.609375 567.804688 C 397.023438 564.648438 397.023438 564.648438 397.023438 561.207031 L 396.992188 557.28125 L 397.03125 553.082031 L 397.023438 548.738281 C 397.027344 545.710938 397.039062 542.683594 397.0625 539.65625 C 397.097656 535.023438 397.089844 530.386719 397.074219 525.75 C 397.082031 522.808594 397.089844 519.867188 397.101562 516.925781 L 397.09375 512.71875 L 397.136719 508.804688 L 397.15625 505.367188 C 397.609375 502.359375 397.609375 502.359375 399.007812 499.871094 Z M 405.183594 611.628906 L 408.5 611.632812 L 412.316406 611.601562 L 416.488281 611.644531 L 420.890625 611.628906 C 424.875 611.625 428.859375 611.632812 432.839844 611.660156 C 437.007812 611.679688 441.175781 611.675781 445.34375 611.675781 C 452.34375 611.679688 459.339844 611.699219 466.335938 611.730469 C 474.429688 611.765625 482.523438 611.777344 490.613281 611.777344 C 498.398438 611.777344 506.183594 611.785156 513.96875 611.804688 C 517.28125 611.816406 520.59375 611.820312 523.90625 611.820312 C 528.53125 611.824219 533.15625 611.847656 537.777344 611.871094 L 541.957031 611.867188 L 545.761719 611.898438 L 549.078125 611.910156 C 551.832031 612.210938 551.832031 612.210938 555.335938 614.546875 C 556.449219 619.078125 556.644531 623.441406 556.601562 628.09375 L 556.578125 631.886719 L 556.527344 635.925781 L 556.476562 640.113281 C 556.4375 643.027344 556.394531 645.941406 556.347656 648.855469 C 556.285156 653.328125 556.25 657.796875 556.21875 662.265625 C 556.175781 665.101562 556.132812 667.933594 556.089844 670.765625 L 556.074219 674.828125 L 555.992188 678.585938 L 555.949219 681.894531 L 555.335938 684.664062 C 553.289062 686.75 553.289062 686.75 550.664062 688.171875 C 542.648438 690.035156 533.878906 689.511719 525.695312 689.496094 L 521.828125 689.5 C 517.636719 689.5 513.449219 689.496094 509.257812 689.484375 L 504.902344 689.480469 C 494.0625 689.460938 483.222656 689.410156 472.382812 689.339844 L 469.945312 689.324219 C 459.511719 689.257812 449.078125 689.164062 438.644531 689.03125 C 435.585938 688.992188 432.527344 688.960938 429.464844 688.933594 C 425.191406 688.898438 420.921875 688.835938 416.644531 688.769531 L 412.789062 688.746094 L 409.253906 688.675781 L 406.183594 688.636719 C 403.453125 688.171875 403.453125 688.171875 400.824219 686.605469 C 398.777344 684.664062 398.777344 684.664062 397.609375 681.160156 C 397.484375 679.085938 397.425781 677.011719 397.402344 674.933594 L 397.359375 671.082031 L 397.332031 666.921875 L 397.304688 662.648438 C 397.289062 659.660156 397.273438 656.675781 397.265625 653.691406 C 397.242188 649.117188 397.199219 644.542969 397.144531 639.972656 C 397.132812 637.074219 397.121094 634.175781 397.113281 631.277344 L 397.050781 627.125 L 397.0625 623.261719 L 397.039062 619.863281 C 397.609375 616.886719 397.609375 616.886719 399.59375 614.398438 C 402.285156 612.210938 402.285156 612.210938 405.183594 611.628906 M 189.648438 497.6875 C 192.402344 496.957031 192.402344 496.957031 195.714844 496.960938 L 199.523438 496.921875 L 203.699219 496.96875 L 208.097656 496.945312 C 212.082031 496.933594 216.0625 496.949219 220.046875 496.976562 C 224.214844 497 228.382812 496.992188 232.546875 496.992188 C 239.550781 496.992188 246.550781 497.011719 253.546875 497.050781 C 261.640625 497.09375 269.730469 497.105469 277.824219 497.097656 C 285.605469 497.089844 293.390625 497.101562 301.175781 497.125 C 304.484375 497.132812 307.796875 497.136719 311.113281 497.136719 C 315.738281 497.136719 320.363281 497.164062 324.992188 497.195312 L 329.160156 497.183594 L 332.976562 497.226562 L 336.292969 497.238281 C 339.195312 497.6875 339.195312 497.6875 341.875 499.214844 L 343.867188 501.191406 C 344.4375 504.402344 344.683594 507.164062 344.742188 510.394531 L 344.84375 513.269531 C 344.945312 516.644531 344.996094 520.019531 345.035156 523.394531 L 345.089844 527.570312 C 345.132812 532.046875 345.164062 536.519531 345.183594 540.996094 L 345.199219 545.332031 C 345.164062 562.664062 345.164062 562.664062 343.867188 568.972656 L 341.53125 572.476562 C 338.0625 573.632812 335.765625 573.804688 332.144531 573.824219 L 328.460938 573.855469 L 324.421875 573.871094 L 320.167969 573.902344 C 315.511719 573.929688 310.855469 573.949219 306.199219 573.964844 L 301.386719 573.984375 C 294.714844 574.011719 288.042969 574.03125 281.371094 574.042969 C 271.816406 574.0625 262.257812 574.105469 252.699219 574.167969 C 245.980469 574.214844 239.257812 574.238281 232.535156 574.242188 C 228.519531 574.246094 224.507812 574.261719 220.492188 574.300781 C 216.015625 574.339844 211.539062 574.335938 207.058594 574.328125 L 203.035156 574.386719 C 199.640625 574.359375 196.488281 574.261719 193.152344 573.644531 C 189.4375 570.972656 189.4375 570.972656 187.3125 567.804688 C 185.917969 564.335938 185.980469 560.9375 185.953125 557.21875 L 185.917969 553.660156 L 185.90625 549.839844 L 185.886719 545.894531 C 185.875 543.140625 185.867188 540.386719 185.863281 537.632812 C 185.851562 533.421875 185.8125 529.210938 185.777344 525 C 185.769531 522.324219 185.765625 519.648438 185.757812 516.972656 L 185.714844 513.15625 L 185.726562 509.589844 L 185.714844 506.464844 C 186.257812 502.742188 187.378906 500.683594 189.648438 497.6875 " fill-opacity="1" fill-rule="nonzero"/><path fill="#153653" d="M 954.859375 517.398438 L 959.035156 517.390625 L 963.523438 517.398438 L 968.179688 517.394531 C 971.4375 517.390625 974.695312 517.394531 977.949219 517.398438 C 982.082031 517.40625 986.210938 517.402344 990.34375 517.394531 C 993.554688 517.390625 996.765625 517.390625 999.976562 517.394531 C 1002.226562 517.394531 1004.476562 517.394531 1006.726562 517.390625 C 1013.664062 517.410156 1020.59375 517.523438 1027.519531 517.855469 L 1031.167969 518.015625 C 1034.351562 518.722656 1034.351562 518.722656 1037.078125 520.898438 C 1039.027344 523.394531 1039.027344 523.394531 1039.605469 526.796875 L 1039.539062 530.480469 L 1039.53125 534.171875 C 1039.027344 537.417969 1039.027344 537.417969 1037.65625 539.34375 C 1035.519531 540.925781 1035.519531 540.925781 1032.527344 541.390625 L 1028.902344 541.429688 L 1024.792969 541.5 L 1020.355469 541.523438 L 1015.8125 541.585938 C 1011.832031 541.640625 1007.851562 541.675781 1003.867188 541.707031 C 999.800781 541.742188 995.738281 541.796875 991.675781 541.847656 C 983.703125 541.949219 975.730469 542.03125 967.757812 542.09375 C 967.917969 546.746094 968.09375 551.394531 968.269531 556.042969 L 968.410156 560.066406 L 968.554688 563.890625 L 968.683594 567.433594 L 968.925781 570.140625 L 970.09375 571.308594 C 973.265625 571.453125 976.414062 571.527344 979.589844 571.554688 L 985.523438 571.65625 C 988.640625 571.703125 991.761719 571.746094 994.882812 571.777344 C 997.890625 571.808594 1000.898438 571.863281 1003.90625 571.921875 L 1006.691406 571.933594 C 1013.117188 572.070312 1017.941406 573.398438 1023.835938 575.984375 C 1026.6875 577.882812 1026.6875 577.882812 1028.511719 580.65625 C 1029.429688 584.179688 1030.046875 587.542969 1029.679688 591.175781 C 1027.863281 593.445312 1026.4375 594.550781 1023.835938 595.851562 C 1022.113281 595.976562 1020.386719 596.050781 1018.65625 596.070312 L 1015.410156 596.128906 L 1011.894531 596.179688 L 1008.296875 596.242188 C 1003.203125 596.335938 998.109375 596.414062 993.015625 596.496094 C 989.304688 596.558594 985.59375 596.621094 981.882812 596.691406 L 978.359375 596.738281 L 975.125 596.796875 L 972.257812 596.84375 L 970.09375 597.019531 L 968.925781 598.1875 C 968.832031 600.269531 968.792969 602.351562 968.8125 604.4375 L 968.824219 608.257812 L 968.851562 612.28125 L 968.867188 616.320312 C 968.882812 619.625 968.902344 622.929688 968.925781 626.234375 L 972.59375 626.324219 C 1012.863281 627.304688 1012.863281 627.304688 1028.730469 627.914062 L 1031.828125 628.007812 C 1034.234375 628.113281 1036.628906 628.332031 1039.027344 628.570312 L 1042.53125 630.910156 C 1043.078125 634.253906 1043.078125 634.253906 1043.113281 638.285156 C 1043.148438 639.605469 1043.1875 640.929688 1043.226562 642.289062 C 1042.53125 646.101562 1042.53125 646.101562 1040.15625 649.21875 C 1036.6875 651.945312 1036.6875 651.945312 1032.363281 652.652344 C 1030.667969 652.671875 1028.96875 652.664062 1027.269531 652.625 L 1024.445312 652.632812 C 1021.378906 652.632812 1018.3125 652.59375 1015.246094 652.554688 C 1013.109375 652.546875 1010.976562 652.539062 1008.84375 652.539062 C 1004.375 652.523438 999.910156 652.496094 995.445312 652.449219 C 989.710938 652.390625 983.980469 652.359375 978.25 652.34375 C 972.789062 652.324219 967.328125 652.296875 961.867188 652.261719 L 958.695312 652.246094 C 955.75 652.226562 952.800781 652.199219 949.851562 652.167969 L 947.191406 652.152344 C 941.15625 652.078125 941.15625 652.078125 938.550781 650.773438 C 937.472656 647.546875 937.230469 645.640625 937.222656 642.316406 L 937.210938 639.257812 L 937.210938 635.914062 L 937.199219 632.382812 C 937.191406 628.523438 937.183594 624.660156 937.183594 620.800781 L 937.171875 612.761719 C 937.164062 607.140625 937.164062 601.519531 937.164062 595.898438 C 937.164062 588.691406 937.148438 581.488281 937.128906 574.28125 C 937.117188 568.746094 937.113281 563.210938 937.113281 557.671875 C 937.113281 555.015625 937.109375 552.359375 937.097656 549.703125 C 937.085938 545.988281 937.089844 542.273438 937.097656 538.558594 C 937.089844 537.457031 937.085938 536.359375 937.078125 535.226562 C 937.101562 530.027344 937.132812 525.722656 939.71875 521.058594 C 942.054688 518.71875 942.054688 518.71875 944.683594 518 C 948.121094 517.519531 951.394531 517.402344 954.859375 517.398438 M 1135.996094 511.710938 C 1140.039062 511.675781 1144.078125 511.652344 1148.117188 511.636719 L 1151.605469 511.605469 L 1154.9375 511.59375 L 1158.015625 511.574219 C 1160.53125 511.710938 1160.53125 511.710938 1162.867188 512.878906 C 1163.023438 526.5625 1163.175781 540.25 1163.324219 553.9375 C 1163.394531 560.292969 1163.46875 566.652344 1163.539062 573.011719 C 1163.609375 579.171875 1163.675781 585.332031 1163.742188 591.492188 L 1163.820312 598.46875 C 1163.894531 605.015625 1163.957031 611.566406 1164.007812 618.117188 C 1164.027344 620.542969 1164.054688 622.972656 1164.085938 625.402344 C 1164.132812 629.296875 1164.167969 633.195312 1164.199219 637.09375 L 1164.253906 640.777344 L 1164.273438 644.175781 L 1164.308594 647.1875 L 1164.039062 649.605469 L 1161.699219 651.945312 C 1159.558594 652.246094 1159.558594 652.246094 1156.996094 652.253906 L 1154.191406 652.261719 L 1151.257812 652.234375 L 1148.339844 652.261719 L 1145.53125 652.253906 L 1142.960938 652.246094 C 1140.671875 651.945312 1140.671875 651.945312 1137.164062 649.605469 C 1136.363281 646.539062 1136.363281 646.539062 1135.996094 643.761719 L 1134.09375 644.746094 C 1130.898438 646.308594 1127.664062 647.710938 1124.386719 649.09375 L 1120.777344 650.632812 C 1111.246094 654.230469 1100.746094 653.90625 1090.726562 652.738281 C 1081.34375 650.550781 1074.175781 644.09375 1067.066406 637.921875 L 1064.445312 635.652344 C 1059.804688 631.039062 1057.96875 626.507812 1056.113281 620.246094 C 1052.957031 607.914062 1051.640625 596.253906 1054.507812 583.726562 C 1056 578.425781 1057.585938 574.371094 1061.222656 570.140625 C 1063.4375 568.046875 1065.714844 566.023438 1068.054688 564.070312 C 1071.339844 561.316406 1074.480469 558.410156 1077.632812 555.507812 C 1083.691406 550.925781 1091.273438 550.109375 1098.609375 549.105469 C 1108.136719 548.132812 1117.984375 550.074219 1126.84375 553.625 C 1128.769531 554.582031 1128.769531 554.582031 1131.324219 556.117188 L 1131.324219 558.453125 L 1135.996094 559.621094 L 1134.828125 557.285156 C 1134.714844 554.171875 1134.664062 551.089844 1134.671875 547.976562 L 1134.671875 545.183594 C 1134.671875 543.230469 1134.671875 541.28125 1134.675781 539.328125 C 1134.683594 536.339844 1134.675781 533.351562 1134.667969 530.363281 C 1134.667969 528.46875 1134.671875 526.574219 1134.671875 524.679688 L 1134.667969 521.96875 C 1134.683594 518.238281 1134.808594 515.273438 1135.996094 511.710938 M 1093.9375 573.0625 C 1089.542969 576.570312 1085.894531 580.242188 1083.421875 585.332031 C 1081.234375 591.714844 1080.285156 598.480469 1081.085938 605.199219 C 1082.4375 611.890625 1084.445312 617.992188 1088.785156 623.34375 C 1090.929688 625.585938 1093.011719 627.558594 1095.800781 628.964844 C 1102.84375 630.910156 1110.117188 630.554688 1117.304688 629.738281 C 1121.765625 628.425781 1125.296875 626.726562 1128.988281 623.898438 C 1132.589844 620.023438 1133.9375 616.460938 1135.121094 611.40625 C 1136.5625 602.65625 1137.113281 594.53125 1134.097656 586.0625 C 1132.511719 582.566406 1130.949219 579.824219 1128.109375 577.226562 C 1120.226562 572.21875 1112.792969 570.371094 1103.507812 569.84375 C 1099.492188 570.164062 1097.328125 570.9375 1093.9375 573.0625 " fill-opacity="1" fill-rule="nonzero"/><path fill="#52b358" d="M 578.703125 424.0625 C 581.476562 424.28125 581.476562 424.28125 584.542969 425.230469 C 586.589844 427.277344 586.589844 427.277344 588.050781 429.90625 C 589.050781 434.019531 589.421875 437.976562 589.585938 442.199219 L 589.734375 445.816406 L 589.875 449.550781 L 590.027344 453.355469 C 590.152344 456.449219 590.269531 459.535156 590.386719 462.625 L 593.292969 462.640625 C 616.636719 462.761719 639.980469 462.890625 663.324219 463.023438 C 674.609375 463.089844 685.898438 463.152344 697.1875 463.207031 C 707.023438 463.257812 716.863281 463.3125 726.699219 463.371094 C 731.910156 463.402344 737.117188 463.429688 742.328125 463.457031 C 747.230469 463.480469 752.132812 463.507812 757.03125 463.539062 C 758.832031 463.550781 760.636719 463.558594 762.4375 463.566406 C 764.890625 463.578125 767.34375 463.589844 769.800781 463.609375 L 773.96875 463.632812 C 777.320312 463.796875 777.320312 463.796875 780.824219 464.964844 L 780.824219 476.652344 L 590.386719 476.652344 L 590.425781 545.039062 C 590.410156 567.730469 590.414062 590.417969 590.449219 613.109375 C 590.457031 628.273438 590.464844 643.433594 590.476562 658.59375 C 590.488281 674.148438 590.492188 689.699219 590.496094 705.253906 C 590.496094 714.855469 590.503906 724.457031 590.511719 734.058594 C 590.515625 740.636719 590.519531 747.214844 590.519531 753.792969 C 590.515625 757.589844 590.519531 761.390625 590.523438 765.191406 C 590.53125 769.304688 590.53125 773.417969 590.527344 777.53125 L 590.539062 781.191406 L 590.53125 784.519531 L 590.53125 787.398438 C 590.386719 789.839844 590.386719 789.839844 589.21875 793.347656 C 585.761719 795.074219 582.507812 794.585938 578.703125 794.515625 C 576.210938 789.527344 577.046875 782.980469 576.882812 777.503906 L 576.808594 775.085938 C 575.992188 747.660156 576.238281 720.214844 576.285156 692.78125 C 576.296875 685.613281 576.300781 678.441406 576.304688 671.273438 C 576.3125 657.101562 576.324219 642.933594 576.339844 628.765625 L 576.34375 626.214844 L 576.390625 587.578125 L 576.390625 585 C 576.40625 570.828125 576.417969 556.660156 576.425781 542.488281 C 576.429688 534.558594 576.441406 526.625 576.453125 518.695312 C 576.464844 511.269531 576.472656 503.847656 576.476562 496.425781 C 576.480469 493.699219 576.484375 490.972656 576.488281 488.242188 C 576.496094 484.535156 576.5 480.828125 576.5 477.121094 L 576.511719 473.816406 L 576.507812 470.824219 L 576.507812 468.230469 C 576.492188 466.011719 576.492188 466.011719 575.199219 463.796875 L 577.535156 463.796875 L 577.515625 460.273438 C 577.496094 455.976562 577.480469 451.679688 577.46875 447.382812 C 577.464844 445.519531 577.457031 443.660156 577.445312 441.796875 C 577.429688 439.125 577.425781 436.453125 577.417969 433.78125 L 577.402344 431.242188 C 577.402344 429.238281 577.460938 427.234375 577.535156 425.230469 Z M 578.703125 424.0625 " fill-opacity="1" fill-rule="nonzero"/><path fill="#153653" d="M 1200.183594 549.980469 L 1203.101562 549.910156 L 1205.910156 549.890625 L 1208.480469 549.859375 C 1210.769531 550.273438 1210.769531 550.273438 1212.640625 551.714844 C 1214.277344 553.78125 1214.277344 553.78125 1214.71875 556.257812 L 1214.726562 559.160156 L 1214.761719 562.457031 L 1214.75 566.023438 L 1214.789062 569.703125 C 1214.828125 573.597656 1214.847656 577.492188 1214.859375 581.386719 C 1214.878906 586.492188 1214.914062 591.59375 1214.96875 596.699219 L 1214.957031 600.21875 C 1215.054688 609.214844 1216.75 617.210938 1221.285156 625.066406 C 1224.101562 626.523438 1224.101562 626.523438 1227.128906 627.402344 L 1230.632812 628.570312 C 1236.445312 629.296875 1241.722656 628.71875 1247.28125 626.890625 C 1250.261719 625.53125 1252.460938 624.253906 1254.824219 621.984375 C 1258 617.328125 1258.972656 612.65625 1259.414062 607.082031 C 1259.679688 602.167969 1259.761719 597.261719 1259.839844 592.34375 C 1259.949219 586.433594 1260.078125 580.523438 1260.222656 574.613281 C 1260.277344 571.988281 1260.3125 569.363281 1260.347656 566.734375 L 1260.453125 561.816406 L 1260.523438 557.382812 C 1261.007812 553.78125 1261.007812 553.78125 1262.515625 551.554688 C 1264.515625 550.273438 1264.515625 550.273438 1269.035156 549.765625 C 1270.8125 549.746094 1272.59375 549.746094 1274.371094 549.761719 L 1277.074219 549.691406 L 1279.695312 549.695312 L 1282.078125 549.6875 C 1284.375 550.273438 1284.375 550.273438 1286.820312 552.089844 C 1289.050781 554.949219 1289.050781 554.949219 1289.625 558.992188 C 1289.648438 560.628906 1289.644531 562.261719 1289.617188 563.898438 L 1289.628906 566.613281 C 1289.640625 569.566406 1289.613281 572.519531 1289.585938 575.476562 L 1289.585938 581.640625 C 1289.578125 585.945312 1289.5625 590.25 1289.53125 594.550781 C 1289.492188 600.070312 1289.476562 605.589844 1289.484375 611.109375 C 1289.480469 615.351562 1289.472656 619.59375 1289.453125 623.835938 C 1289.445312 625.871094 1289.441406 627.910156 1289.4375 629.945312 C 1289.429688 632.785156 1289.414062 635.628906 1289.390625 638.46875 L 1289.390625 641.027344 C 1289.363281 643.109375 1289.214844 645.191406 1289.050781 647.269531 L 1286.710938 650.773438 C 1283.304688 651.667969 1279.78125 651.644531 1276.269531 651.796875 L 1273.351562 652.007812 C 1272.425781 652.054688 1271.5 652.105469 1270.542969 652.152344 L 1267.972656 652.289062 C 1265.683594 651.945312 1265.683594 651.945312 1263.640625 650.410156 L 1262.175781 648.4375 C 1261.957031 644.714844 1261.957031 644.714844 1262.175781 641.425781 L 1258.671875 641.425781 L 1257.773438 643.609375 C 1256.335938 646.101562 1256.335938 646.101562 1254.351562 647.496094 L 1252.027344 648.582031 L 1249.75 649.6875 C 1240.070312 653.496094 1230.390625 654.300781 1220.117188 653.113281 C 1212.175781 651.207031 1206.042969 647.601562 1199.816406 642.375 C 1194.582031 637.308594 1190.207031 631.835938 1187.402344 625.066406 C 1184.195312 608.417969 1184.945312 590.523438 1184.847656 573.644531 L 1184.800781 569.402344 L 1184.796875 565.394531 L 1184.785156 561.84375 C 1185.101562 558.046875 1185.953125 554.964844 1187.402344 551.441406 C 1191.382812 549.453125 1195.796875 550.007812 1200.183594 549.980469 " fill-opacity="1" fill-rule="nonzero"/><path fill="#52b358" d="M 1675.765625 510.539062 C 1680.003906 510.832031 1680.003906 510.832031 1683.945312 511.710938 L 1685.113281 512.878906 C 1685.222656 514.5625 1685.25 516.253906 1685.246094 517.945312 L 1685.246094 521.207031 L 1685.230469 524.75 L 1685.222656 528.363281 C 1685.21875 532.183594 1685.203125 536.007812 1685.1875 539.828125 C 1685.179688 542.414062 1685.175781 544.996094 1685.171875 547.582031 C 1685.15625 553.933594 1685.140625 560.285156 1685.113281 566.632812 C 1688.710938 564.507812 1691.980469 562.363281 1695.191406 559.695312 C 1702.425781 554.238281 1710.554688 551.542969 1719.507812 550.417969 C 1728.691406 549.894531 1737.511719 551.1875 1745.941406 554.949219 C 1754.8125 559.785156 1763.824219 567.464844 1769.320312 576.042969 C 1773.617188 585.09375 1774.5 594.757812 1774.234375 604.660156 C 1773.652344 611.847656 1772.554688 618.730469 1769.101562 625.140625 C 1767.347656 627.625 1765.433594 629.820312 1763.390625 632.078125 L 1760.148438 635.859375 C 1748.796875 648.863281 1748.796875 648.863281 1740.027344 651.945312 C 1730.566406 654.367188 1719.171875 654.335938 1709.628906 652.394531 C 1701.886719 649.558594 1694.753906 644.542969 1688.617188 639.089844 C 1687.085938 636.460938 1687.085938 636.460938 1686.28125 634.414062 L 1683.945312 634.414062 L 1683.945312 651.945312 L 1673.429688 651.945312 C 1670.789062 646.660156 1670.777344 642.691406 1670.824219 636.957031 L 1670.824219 633.746094 C 1670.828125 630.195312 1670.851562 626.644531 1670.875 623.09375 L 1670.90625 615.59375 C 1670.9375 608.617188 1670.996094 601.644531 1671.054688 594.671875 C 1671.089844 590.613281 1671.117188 586.554688 1671.144531 582.496094 C 1671.210938 572.9375 1671.296875 563.375 1671.402344 553.816406 C 1671.441406 550.378906 1671.472656 546.945312 1671.496094 543.511719 C 1671.535156 538.671875 1671.597656 533.832031 1671.664062 528.992188 L 1671.6875 524.5625 L 1671.757812 520.507812 L 1671.796875 516.964844 C 1672.261719 514.046875 1672.261719 514.046875 1673.78125 511.871094 Z M 1700.957031 568.4375 C 1694.941406 572.769531 1690.589844 577.414062 1687.449219 584.164062 C 1685.285156 589.554688 1684.699219 594.472656 1684.75 600.230469 C 1684.753906 601.054688 1684.761719 601.878906 1684.769531 602.726562 C 1684.953125 610.652344 1686.113281 617.214844 1690.085938 624.097656 C 1694.070312 629.878906 1698.871094 634.433594 1704.976562 637.921875 C 1711.488281 640.75 1718.070312 642.078125 1725.171875 641.839844 C 1733.03125 640.8125 1740.453125 638.265625 1747.546875 634.777344 C 1752.445312 630.359375 1756.023438 625.328125 1758.507812 619.195312 C 1761.273438 609.027344 1761.226562 596.082031 1758.574219 585.917969 C 1756.507812 580.242188 1753.710938 575.53125 1749.371094 571.308594 C 1742.597656 566.347656 1735.535156 562.488281 1727.082031 561.566406 C 1716.90625 561.441406 1709.574219 562.988281 1700.957031 568.4375 M 1421.070312 518.722656 C 1421.371094 521.308594 1421.371094 521.308594 1421.070312 524.5625 C 1419.054688 527.226562 1419.054688 527.226562 1416.246094 529.917969 L 1413.164062 532.929688 L 1409.898438 536.03125 C 1407.800781 538.054688 1405.707031 540.085938 1403.613281 542.117188 L 1400.550781 545.089844 C 1397.28125 548.359375 1394.246094 551.777344 1391.246094 555.292969 C 1389.042969 557.84375 1386.683594 560.199219 1384.269531 562.542969 C 1379.535156 567.210938 1375.128906 572.082031 1370.832031 577.152344 C 1373.882812 582.703125 1377.164062 587.847656 1381.054688 592.855469 L 1382.609375 594.867188 C 1386.136719 599.363281 1389.921875 603.34375 1394.058594 607.289062 C 1397.859375 611.253906 1401.113281 615.621094 1404.460938 619.972656 C 1407.976562 624.511719 1411.6875 628.886719 1415.59375 633.101562 C 1425.226562 643.519531 1425.226562 643.519531 1428.082031 648.4375 L 1428.082031 651.945312 C 1425.867188 652.070312 1423.652344 652.160156 1421.4375 652.234375 L 1417.699219 652.398438 C 1414.058594 651.945312 1414.058594 651.945312 1411.0625 650.066406 C 1407.726562 646.785156 1404.902344 643.324219 1402.085938 639.601562 L 1398.679688 635.195312 L 1396.988281 632.996094 C 1390.492188 624.617188 1383.621094 616.558594 1376.382812 608.816406 C 1374.335938 606.367188 1374.335938 606.367188 1373.167969 602.863281 L 1370.832031 602.863281 C 1368.9375 600.898438 1368.9375 600.898438 1366.816406 598.332031 C 1364.308594 595.308594 1362.457031 593.382812 1359.148438 591.175781 L 1356.371094 593.742188 L 1350.710938 598.953125 C 1347.335938 602.050781 1343.929688 605.070312 1340.382812 607.972656 C 1336.90625 611.082031 1335.320312 612.664062 1333.445312 616.886719 C 1332.910156 621.3125 1332.847656 625.722656 1332.789062 630.179688 C 1332.65625 637.832031 1332.488281 644.675781 1329.941406 651.945312 L 1320.59375 651.945312 C 1317.855469 646.527344 1317.933594 641.691406 1317.972656 635.773438 L 1317.964844 632.65625 C 1317.960938 629.257812 1317.972656 625.859375 1317.988281 622.464844 C 1317.988281 620.089844 1317.988281 617.71875 1317.988281 615.347656 C 1317.992188 610.378906 1318 605.40625 1318.015625 600.429688 C 1318.035156 594.085938 1318.042969 587.738281 1318.039062 581.394531 C 1318.039062 576.492188 1318.046875 571.59375 1318.054688 566.691406 C 1318.058594 564.355469 1318.0625 562.015625 1318.0625 559.679688 C 1318.085938 529.082031 1318.085938 529.082031 1320.886719 522.082031 L 1322.929688 519.890625 C 1326.070312 518.941406 1326.070312 518.941406 1328.773438 518.722656 C 1332.363281 527.613281 1332.742188 535.308594 1332.621094 544.835938 L 1332.605469 549.273438 C 1332.585938 553.128906 1332.558594 556.984375 1332.519531 560.839844 C 1332.484375 564.789062 1332.46875 568.738281 1332.449219 572.683594 C 1332.410156 580.40625 1332.351562 588.128906 1332.277344 595.851562 C 1337.113281 593.078125 1340.335938 590.191406 1344.035156 585.988281 C 1348.617188 580.84375 1353.363281 575.851562 1358.273438 571.015625 C 1361.984375 567.351562 1365.628906 563.675781 1369.007812 559.695312 C 1373.3125 554.625 1378.0625 550.023438 1382.789062 545.347656 C 1386.890625 541.273438 1390.816406 537.039062 1394.574219 532.644531 C 1396.957031 529.925781 1399.425781 527.308594 1401.9375 524.710938 L 1404.46875 522.089844 C 1410.015625 517.363281 1414.058594 517.34375 1421.070312 518.722656 M 1478.402344 551.253906 C 1487.542969 551 1496.589844 551.636719 1505.191406 554.949219 C 1511.515625 559.21875 1514.457031 564.042969 1517.824219 570.796875 L 1519.21875 573.472656 C 1522.480469 579.824219 1524.027344 584.632812 1524.035156 591.851562 L 1524.046875 595.808594 L 1524.039062 600.0625 L 1524.042969 604.4375 C 1524.042969 608.265625 1524.039062 612.09375 1524.03125 615.921875 C 1524.03125 618.273438 1524.03125 620.628906 1524.035156 622.984375 C 1524.042969 627.492188 1524.042969 632 1524.039062 636.507812 L 1524.046875 640.785156 L 1524.035156 644.707031 L 1524.03125 648.183594 L 1523.882812 650.773438 L 1522.714844 651.945312 C 1518.816406 652.109375 1514.933594 651.992188 1511.03125 651.945312 L 1508.695312 640.257812 L 1505.410156 643.398438 C 1499.984375 647.960938 1494.464844 651.054688 1487.664062 653.113281 C 1477.570312 654.664062 1467.078125 655.359375 1457.289062 651.945312 C 1451.390625 649.554688 1446.855469 646.695312 1442.832031 641.71875 C 1439.578125 636.867188 1437.097656 632.058594 1436.257812 626.234375 C 1436.539062 620.648438 1437.945312 615.957031 1440.277344 610.894531 C 1446.730469 603.652344 1455.066406 597.761719 1464.300781 594.679688 C 1469.699219 593.566406 1474.9375 593.355469 1480.429688 593.398438 L 1482.992188 593.402344 C 1485.667969 593.410156 1488.347656 593.425781 1491.023438 593.4375 C 1492.851562 593.445312 1494.675781 593.453125 1496.5 593.457031 C 1500.957031 593.46875 1505.410156 593.488281 1509.863281 593.511719 C 1509.714844 591.476562 1509.558594 589.4375 1509.394531 587.402344 L 1509.128906 583.960938 C 1508.484375 579.042969 1507.019531 575.257812 1504.023438 571.308594 C 1498.996094 566.300781 1493.460938 563.351562 1486.671875 561.417969 L 1484.160156 560.792969 L 1480.144531 559.769531 C 1474.269531 559.5625 1469.660156 560.734375 1464.300781 563.128906 C 1460.574219 565.472656 1456.9375 567.945312 1453.390625 570.554688 L 1450.277344 572.476562 L 1445.605469 572.476562 L 1443.269531 568.972656 C 1443.445312 566.675781 1443.445312 566.675781 1444.4375 564.296875 C 1448.261719 559.859375 1452.882812 556.171875 1458.3125 553.925781 C 1464.894531 551.839844 1471.550781 551.613281 1478.402344 551.253906 M 1460.824219 606.953125 C 1457.316406 609.546875 1455.0625 612.085938 1452.617188 615.714844 C 1451.152344 620.101562 1450.722656 624.023438 1451.449219 628.570312 C 1453.261719 632.605469 1455.75 635.570312 1459.25 638.257812 C 1465.597656 642.179688 1471.5 642.648438 1478.757812 642.886719 C 1484.730469 642.789062 1489.496094 642.164062 1494.675781 639.089844 C 1499.644531 635.402344 1503.914062 631.761719 1507.234375 626.503906 C 1508.953125 622.066406 1509.09375 618.199219 1508.914062 613.523438 L 1508.867188 611.085938 C 1508.824219 609.125 1508.761719 607.160156 1508.695312 605.199219 C 1484.085938 600.976562 1484.085938 600.976562 1460.824219 606.953125 M 1833.4375 552.382812 C 1841.507812 552.136719 1848.242188 552.382812 1855.601562 555.902344 C 1860.222656 558.535156 1863.648438 561.046875 1866.632812 565.523438 C 1875.644531 581.816406 1874.875 599.765625 1874.710938 617.808594 C 1874.675781 621.96875 1874.664062 626.125 1874.65625 630.285156 L 1874.621094 638.199219 L 1874.605469 641.976562 L 1874.570312 645.429688 L 1874.546875 648.480469 L 1874.382812 650.773438 L 1873.214844 651.945312 C 1871.46875 652.058594 1869.710938 652.09375 1867.957031 652.089844 L 1865.074219 652.097656 L 1862.699219 651.945312 L 1861.53125 650.773438 C 1861.367188 647.65625 1861.484375 644.554688 1861.53125 641.425781 C 1857.457031 642.324219 1857.457031 642.324219 1853.355469 643.761719 L 1852.1875 647.269531 C 1849.167969 648.847656 1849.167969 648.847656 1845.394531 650.335938 C 1844.15625 650.832031 1842.921875 651.332031 1841.648438 651.84375 C 1832.628906 655.128906 1823.324219 655.214844 1813.835938 653.785156 C 1806.261719 651.84375 1800.539062 647.988281 1794.9375 642.59375 C 1791.824219 638.964844 1789.453125 635.488281 1787.925781 630.910156 C 1787.40625 625.191406 1787.601562 620.265625 1789.316406 614.765625 C 1791.621094 610.710938 1793.667969 608.164062 1797.273438 605.199219 C 1799.609375 603.917969 1801.976562 602.773438 1804.398438 601.660156 C 1806.867188 600.511719 1806.867188 600.511719 1809.46875 598.039062 C 1813.679688 594.960938 1817.898438 594.1875 1822.976562 593.511719 C 1829.238281 593.242188 1835.480469 593.289062 1841.746094 593.367188 C 1843.441406 593.378906 1845.136719 593.390625 1846.835938 593.398438 C 1850.957031 593.425781 1855.074219 593.464844 1859.195312 593.511719 C 1860.640625 589.179688 1860.445312 585.980469 1859.941406 581.480469 C 1858.660156 576.050781 1855.746094 572.019531 1852.1875 567.804688 C 1847.667969 563.503906 1843.28125 561.488281 1837.265625 559.980469 C 1832.265625 559.273438 1827.753906 558.804688 1822.878906 560.4375 C 1816.035156 563.367188 1809.605469 567.082031 1803.320312 571.058594 L 1800.777344 572.476562 C 1798.078125 572.113281 1798.078125 572.113281 1796.105469 571.308594 C 1795.082031 568.898438 1795.082031 568.898438 1794.9375 565.464844 C 1796.765625 562.160156 1799.089844 559.730469 1801.949219 557.285156 C 1809.671875 553.070312 1817.785156 552.972656 1826.472656 552.6875 C 1828.792969 552.605469 1831.117188 552.503906 1833.4375 552.382812 M 1811.738281 606.671875 C 1808.121094 609.511719 1805.121094 612.066406 1803.042969 616.226562 C 1801.789062 620.320312 1801.789062 620.320312 1801.875 624.410156 C 1803.535156 629.980469 1805.972656 633.855469 1810.125 637.921875 C 1816.144531 641.421875 1821.226562 641.683594 1828.164062 641.863281 C 1835.152344 641.695312 1841.292969 641.265625 1847.511719 637.921875 C 1852.109375 634.976562 1855.683594 631.484375 1858.539062 626.816406 C 1861.636719 620.070312 1860.730469 612.441406 1860.363281 605.199219 C 1855.246094 602.640625 1848.46875 603.449219 1842.839844 603.226562 L 1838.609375 603.015625 C 1829.285156 602.640625 1820.296875 602.550781 1811.738281 606.671875 M 1617.496094 551.953125 C 1626.585938 555.304688 1632.726562 561.554688 1638.890625 568.824219 C 1644.09375 579.234375 1644.726562 589.65625 1644.605469 601.117188 L 1644.597656 605.535156 C 1644.589844 608.589844 1644.574219 611.644531 1644.550781 614.699219 C 1644.519531 618.617188 1644.503906 622.539062 1644.5 626.457031 C 1644.492188 630.210938 1644.480469 633.960938 1644.460938 637.710938 L 1644.445312 641.984375 L 1644.410156 645.898438 L 1644.386719 649.359375 L 1644.222656 651.945312 L 1643.054688 653.113281 C 1638.519531 653.285156 1634.566406 653.15625 1630.203125 651.945312 L 1630.167969 649.863281 C 1630.039062 642.660156 1629.90625 635.453125 1629.769531 628.25 C 1629.71875 625.566406 1629.667969 622.886719 1629.621094 620.203125 C 1629.550781 616.328125 1629.480469 612.453125 1629.402344 608.574219 L 1629.34375 605 C 1629.339844 590.648438 1629.339844 590.648438 1626.550781 576.714844 C 1623.542969 572.5 1620.660156 569.300781 1616.183594 566.632812 C 1609.105469 564.070312 1601.507812 562.171875 1593.984375 563.128906 C 1586.730469 565.042969 1580.125 567.53125 1574.625 572.753906 C 1569.613281 578.933594 1567.320312 586.953125 1565.945312 594.679688 C 1565.667969 599.054688 1565.726562 603.402344 1565.796875 607.78125 L 1565.824219 611.496094 C 1565.851562 615.386719 1565.898438 619.277344 1565.945312 623.167969 C 1566.003906 628.3125 1566.054688 633.457031 1566.089844 638.605469 L 1566.148438 642.199219 L 1566.171875 645.507812 L 1566.210938 648.425781 L 1565.945312 650.773438 L 1563.605469 653.113281 C 1558.769531 653.34375 1555.339844 653.472656 1550.753906 651.945312 C 1550.730469 639.183594 1550.707031 626.425781 1550.695312 613.667969 C 1550.691406 607.742188 1550.679688 601.820312 1550.667969 595.898438 C 1550.65625 590.183594 1550.648438 584.46875 1550.644531 578.757812 C 1550.640625 576.574219 1550.636719 574.390625 1550.632812 572.207031 C 1550.625 569.15625 1550.621094 566.105469 1550.621094 563.054688 L 1550.609375 560.300781 C 1550.621094 554.046875 1550.621094 554.046875 1551.925781 551.441406 C 1553.847656 551.410156 1555.769531 551.386719 1557.691406 551.371094 L 1560.9375 551.328125 L 1563.605469 551.441406 L 1564.777344 552.609375 C 1564.859375 554.777344 1564.875 556.945312 1564.847656 559.113281 L 1564.816406 562.695312 L 1564.777344 565.464844 C 1568.457031 563.394531 1571.714844 561.09375 1575 558.453125 C 1586.78125 549.472656 1603.53125 547.988281 1617.496094 551.953125 M 1971.632812 553.394531 C 1977.617188 556.273438 1982.75 559.871094 1986.9375 565.0625 C 1990.960938 571.480469 1993.242188 579.203125 1993.859375 586.699219 C 1993.957031 590.878906 1993.949219 595.039062 1993.898438 599.21875 L 1993.882812 603.804688 C 1993.867188 607.789062 1993.835938 611.777344 1993.796875 615.757812 C 1993.761719 619.839844 1993.742188 623.921875 1993.726562 628.003906 C 1993.6875 635.984375 1993.628906 643.964844 1993.554688 651.945312 L 1981.871094 651.945312 C 1978.695312 646.074219 1979.28125 640.105469 1979.386719 633.628906 L 1979.414062 629.957031 C 1979.453125 624.785156 1979.519531 619.613281 1979.582031 614.445312 C 1979.625 610.664062 1979.652344 606.882812 1979.679688 603.097656 L 1979.738281 599.601562 C 1979.792969 591.566406 1979.109375 584.050781 1975.980469 576.582031 C 1973.574219 572.746094 1971.371094 569.769531 1967.484375 567.363281 C 1960.707031 564.054688 1953.609375 562.546875 1946.066406 562.765625 C 1939.746094 563.597656 1934.351562 566.054688 1929.019531 569.484375 C 1923.382812 573.894531 1920.472656 578.742188 1917.644531 585.242188 C 1915.640625 591.25 1915.617188 597.019531 1915.660156 603.304688 L 1915.613281 607.320312 C 1915.570312 611.507812 1915.566406 615.691406 1915.566406 619.878906 C 1915.542969 624.105469 1915.511719 628.328125 1915.472656 632.550781 C 1915.453125 635.167969 1915.441406 637.789062 1915.4375 640.40625 L 1915.421875 643.964844 L 1915.421875 647.105469 C 1915.277344 649.605469 1915.277344 649.605469 1914.109375 651.945312 C 1909.570312 653.457031 1906.039062 653.265625 1901.253906 653.113281 L 1900.085938 651.945312 C 1899.988281 648.75 1899.957031 645.554688 1899.988281 642.359375 L 1900 639.25 C 1900.019531 635.691406 1900.054688 632.128906 1900.085938 628.570312 L 1900.125 624.582031 C 1900.207031 615.820312 1900.324219 607.058594 1900.457031 598.296875 C 1900.503906 595.226562 1900.546875 592.15625 1900.582031 589.082031 C 1900.632812 584.585938 1900.699219 580.089844 1900.773438 575.59375 L 1900.8125 571.453125 C 1900.933594 564.757812 1901.238281 558.90625 1903.59375 552.609375 L 1904.761719 551.441406 C 1911.222656 551.167969 1911.222656 551.167969 1914.105469 552.609375 C 1914.589844 555.28125 1914.589844 555.28125 1914.835938 558.527344 L 1915.101562 561.78125 L 1915.277344 564.296875 L 1918.78125 564.296875 C 1920.125 562.917969 1921.457031 561.53125 1922.785156 560.132812 C 1927.546875 555.785156 1933.433594 553.21875 1939.445312 551.078125 C 1950.308594 548.851562 1961.277344 549.46875 1971.632812 553.394531 " fill-opacity="1" fill-rule="nonzero"/><path fill="#62b66d" d="M 537.8125 581.828125 C 542.132812 583.429688 545.933594 585.40625 549.859375 587.816406 L 552.984375 589.722656 L 555.335938 591.175781 C 554.484375 593.3125 554.484375 593.3125 553 595.851562 C 550.636719 597.585938 550.636719 597.585938 547.886719 599.0625 L 545.160156 600.578125 C 542.484375 601.691406 542.484375 601.691406 537.8125 601.691406 L 536.640625 598.1875 C 524.414062 597.207031 512.253906 596.824219 499.988281 596.75 C 496.914062 596.730469 493.835938 596.703125 490.761719 596.671875 C 482.03125 596.59375 473.300781 596.523438 464.570312 596.460938 C 459.191406 596.421875 453.816406 596.375 448.441406 596.320312 C 446.40625 596.300781 444.371094 596.289062 442.339844 596.277344 C 439.5 596.261719 436.660156 596.234375 433.820312 596.203125 L 431.3125 596.203125 C 425.871094 596.125 421.425781 595.1875 416.304688 593.511719 L 418.640625 591.175781 C 421.742188 590.816406 424.734375 590.601562 427.847656 590.484375 L 430.6875 590.351562 C 441.429688 589.882812 452.183594 589.621094 462.9375 589.382812 L 469.371094 589.230469 C 474.933594 589.097656 480.5 588.96875 486.066406 588.84375 C 491.777344 588.710938 497.488281 588.578125 503.199219 588.441406 C 514.347656 588.183594 525.496094 587.925781 536.640625 587.667969 Z M 537.8125 581.828125 " fill-opacity="1" fill-rule="nonzero"/><path fill="#a9d5b3" d="M 443.007812 589.867188 C 446.347656 589.734375 449.691406 589.644531 453.035156 589.570312 L 456.238281 589.433594 L 459.234375 589.394531 L 461.890625 589.324219 L 464.207031 590.007812 C 466.269531 592.96875 466.269531 592.96875 467.710938 595.851562 C 461.703125 595.910156 455.699219 595.949219 449.691406 595.976562 C 447.648438 595.988281 445.609375 596.003906 443.566406 596.023438 C 440.625 596.054688 437.679688 596.070312 434.738281 596.078125 L 432 596.113281 C 426.328125 596.113281 421.691406 595.316406 416.304688 593.511719 L 418.640625 591.175781 C 421.671875 590.804688 424.714844 590.5625 427.769531 590.445312 L 430.546875 590.324219 C 432.53125 590.246094 434.515625 590.171875 436.496094 590.109375 C 438.667969 590.039062 440.839844 589.957031 443.007812 589.867188 " fill-opacity="1" fill-rule="nonzero"/><path fill="#73bd7e" d="M 668.664062 584.164062 L 671.804688 584.675781 C 683.695312 586.304688 694.25 586.738281 706.050781 584.164062 L 704.882812 587.667969 C 700.0625 590.410156 695.078125 592.214844 689.695312 593.511719 C 685.683594 593.1875 682.726562 591.839844 679.179688 590.007812 C 677.210938 589.148438 675.238281 588.296875 673.265625 587.449219 C 671.726562 586.75 670.195312 586.042969 668.664062 585.332031 Z M 668.664062 584.164062 " fill-opacity="1" fill-rule="nonzero"/><path fill="#7bc185" d="M 717.734375 577.152344 C 721.3125 577.957031 721.3125 577.957031 723.574219 579.488281 L 722.40625 582.996094 L 722.40625 580.65625 L 720.273438 581.464844 L 717.441406 582.484375 L 714.648438 583.511719 C 711.890625 584.164062 711.890625 584.164062 709.207031 583.683594 L 707.21875 582.996094 C 710.621094 580.785156 713.988281 578.726562 717.734375 577.152344 " fill-opacity="1" fill-rule="nonzero"/></svg>